<svg xmlns="http://www.w3.org/2000/svg" xmlns:xlink="http://www.w3.org/1999/xlink" width="300" height="285.03366094815783" viewBox="482.14613826760683 593.5618122677658 501.4241028289082 285.03366094815783" preserveAspectRatio="xMinYMin meet"><g transform="matrix(1,0,0,-1,0,1472.1572854836895)"><g><path fill-rule="evenodd" fill="#ff3333" stroke="#555555" stroke-width="3.3428273521927214" opacity="0.6" d="M 957.2292769928737,676.7880875271344 L 949.4595759569696,612.1330753355032 L 917.4065634839965,615.9849394953462 L 925.1762645199004,680.6399516869767 L 957.2292769928737,676.7880875271344 z" /><path fill-rule="evenodd" fill="#ff3333" stroke="#555555" stroke-width="3.3428273521927214" opacity="0.6" d="M 925.1762645199004,680.6399516869767 L 917.4065634839965,615.9849394953462 L 885.3535510110232,619.8368036551883 L 893.1232520469272,684.4918158468189 L 925.1762645199004,680.6399516869767 z" /><path fill-rule="evenodd" fill="#ff3333" stroke="#555555" stroke-width="3.3428273521927214" opacity="0.6" d="M 893.1232520469272,684.4918158468189 L 885.3535510110232,619.8368036551883 L 853.30053853805,623.6886678150313 L 861.0702395739539,688.3436800066612 L 893.1232520469272,684.4918158468189 z" /><path fill-rule="evenodd" fill="#ff3333" stroke="#555555" stroke-width="3.3428273521927214" opacity="0.6" d="M 861.0702395739539,688.3436800066612 L 853.30053853805,623.6886678150313 L 821.2475260650766,627.5405319748725 L 829.0172271009807,692.1955441665035 L 861.0702395739539,688.3436800066612 z" /><path fill-rule="evenodd" fill="#ff3333" stroke="#555555" stroke-width="3.3428273521927214" opacity="0.6" d="M 829.0172271009807,692.1955441665035 L 821.2475260650766,627.5405319748725 L 789.1945135921035,631.3923961347155 L 796.9642146280074,696.0474083263458 L 829.0172271009807,692.1955441665035 z" /><path fill-rule="evenodd" fill="#ff3333" stroke="#555555" stroke-width="3.3428273521927214" opacity="0.6" d="M 796.9642146280074,696.0474083263458 L 789.1945135921035,631.3923961347155 L 757.1415011191302,635.2442602945575 L 764.9112021550342,699.899272486188 L 796.9642146280074,696.0474083263458 z" /><path fill-rule="evenodd" fill="#ff3333" stroke="#555555" stroke-width="3.3428273521927214" opacity="0.6" d="M 764.9112021550342,699.899272486188 L 757.1415011191302,635.2442602945575 L 725.088488646157,639.0961244544005 L 732.8581896820609,703.7511366460303 L 764.9112021550342,699.899272486188 z" /><path fill-rule="evenodd" fill="#ff3333" stroke="#555555" stroke-width="3.3428273521927214" opacity="0.6" d="M 732.8581896820609,703.7511366460303 L 725.088488646157,639.0961244544005 L 693.0354761731836,642.9479886142426 L 700.8051772090876,707.6030008058726 L 732.8581896820609,703.7511366460303 z" /><path fill-rule="evenodd" fill="#ff3333" stroke="#555555" stroke-width="3.3428273521927214" opacity="0.6" d="M 700.8051772090876,707.6030008058726 L 693.0354761731836,642.9479886142426 L 660.9824637002104,646.7998527740847 L 668.7521647361143,711.4548649657149 L 700.8051772090876,707.6030008058726 z" /><path fill-rule="evenodd" fill="#ff3333" stroke="#555555" stroke-width="3.3428273521927214" opacity="0.6" d="M 668.7521647361143,711.4548649657149 L 660.9824637002104,646.7998527740847 L 628.9294512272371,650.6517169339268 L 636.6991522631411,715.3067291255572 L 668.7521647361143,711.4548649657149 z" /><path fill-rule="evenodd" fill="#ff3333" stroke="#555555" stroke-width="3.3428273521927214" opacity="0.6" d="M 636.6991522631411,715.3067291255572 L 628.9294512272371,650.6517169339268 L 596.8764387542637,654.5035810937688 L 604.6461397901678,719.1585932853994 L 636.6991522631411,715.3067291255572 z" /><path fill-rule="evenodd" fill="#ff3333" stroke="#555555" stroke-width="3.3428273521927214" opacity="0.6" d="M 604.6461397901678,719.1585932853994 L 596.8764387542637,654.5035810937688 L 564.8234262812906,658.3554452536118 L 572.5931273171946,723.0104574452417 L 604.6461397901678,719.1585932853994 z" /><path fill-rule="evenodd" fill="#ff3333" stroke="#555555" stroke-width="3.3428273521927214" opacity="0.6" d="M 572.5931273171946,723.0104574452417 L 564.8234262812906,658.3554452536118 L 532.7704138083174,662.2073094134539 L 540.5401148442213,726.862321605084 L 572.5931273171946,723.0104574452417 z" /><path fill-rule="evenodd" fill="#ff3333" stroke="#555555" stroke-width="3.3428273521927214" opacity="0.6" d="M 540.5401148442213,726.862321605084 L 532.7704138083174,662.2073094134539 L 500.71740133534416,666.059173573296 L 508.48710237124806,730.7141857649264 L 540.5401148442213,726.862321605084 z" /><path fill-rule="evenodd" fill="#ff3333" stroke="#555555" stroke-width="3.3428273521927214" opacity="0.6" d="M 964.9989780287776,741.4430997187643 L 957.2292769928737,676.7880875271339 L 925.1762645199004,680.639951686976 L 932.9459655558044,745.2949638786066 L 964.9989780287776,741.4430997187643 z" /><path fill-rule="evenodd" fill="#ff3333" stroke="#555555" stroke-width="3.3428273521927214" opacity="0.6" d="M 932.9459655558044,745.2949638786066 L 925.1762645199004,680.639951686976 L 893.1232520469272,684.491815846819 L 900.8929530828311,749.1468280384488 L 932.9459655558044,745.2949638786066 z" /><path fill-rule="evenodd" fill="#ff3333" stroke="#555555" stroke-width="3.3428273521927214" opacity="0.6" d="M 900.8929530828311,749.1468280384488 L 893.1232520469272,684.491815846819 L 861.0702395739539,688.3436800066611 L 868.8399406098579,752.9986921982911 L 900.8929530828311,749.1468280384488 z" /><path fill-rule="evenodd" fill="#ff3333" stroke="#555555" stroke-width="3.3428273521927214" opacity="0.6" d="M 868.8399406098579,752.9986921982911 L 861.0702395739539,688.3436800066611 L 829.0172271009806,692.1955441665032 L 836.7869281368846,756.8505563581334 L 868.8399406098579,752.9986921982911 z" /><path fill-rule="evenodd" fill="#ff3333" stroke="#555555" stroke-width="3.3428273521927214" opacity="0.6" d="M 836.7869281368846,756.8505563581334 L 829.0172271009806,692.1955441665032 L 796.9642146280074,696.0474083263452 L 804.7339156639114,760.7024205179757 L 836.7869281368846,756.8505563581334 z" /><path fill-rule="evenodd" fill="#ff3333" stroke="#555555" stroke-width="3.3428273521927214" opacity="0.6" d="M 804.7339156639114,760.7024205179757 L 796.9642146280074,696.0474083263452 L 764.9112021550341,699.8992724861873 L 772.6809031909381,764.5542846778179 L 804.7339156639114,760.7024205179757 z" /><path fill-rule="evenodd" fill="#ff3333" stroke="#555555" stroke-width="3.3428273521927214" opacity="0.6" d="M 772.6809031909381,764.5542846778179 L 764.9112021550341,699.8992724861873 L 732.8581896820609,703.7511366460303 L 740.6278907179649,768.4061488376602 L 772.6809031909381,764.5542846778179 z" /><path fill-rule="evenodd" fill="#ff3333" stroke="#555555" stroke-width="3.3428273521927214" opacity="0.6" d="M 740.6278907179649,768.4061488376602 L 732.8581896820609,703.7511366460303 L 700.8051772090877,707.6030008058724 L 708.5748782449916,772.2580129975025 L 740.6278907179649,768.4061488376602 z" /><path fill-rule="evenodd" fill="#ff3333" stroke="#555555" stroke-width="3.3428273521927214" opacity="0.6" d="M 708.5748782449916,772.2580129975025 L 700.8051772090877,707.6030008058724 L 668.7521647361145,711.4548649657154 L 676.5218657720184,776.1098771573448 L 708.5748782449916,772.2580129975025 z" /><path fill-rule="evenodd" fill="#ff3333" stroke="#555555" stroke-width="3.3428273521927214" opacity="0.6" d="M 676.5218657720184,776.1098771573448 L 668.7521647361145,711.4548649657154 L 636.6991522631412,715.3067291255566 L 644.4688532990451,779.9617413171871 L 676.5218657720184,776.1098771573448 z" /><path fill-rule="evenodd" fill="#ff3333" stroke="#555555" stroke-width="3.3428273521927214" opacity="0.6" d="M 644.4688532990451,779.9617413171871 L 636.6991522631412,715.3067291255566 L 604.6461397901679,719.1585932853995 L 612.4158408260719,783.8136054770293 L 644.4688532990451,779.9617413171871 z" /><path fill-rule="evenodd" fill="#ff3333" stroke="#555555" stroke-width="3.3428273521927214" opacity="0.6" d="M 612.4158408260719,783.8136054770293 L 604.6461397901679,719.1585932853995 L 572.5931273171947,723.0104574452416 L 580.3628283530986,787.6654696368716 L 612.4158408260719,783.8136054770293 z" /><path fill-rule="evenodd" fill="#ff3333" stroke="#555555" stroke-width="3.3428273521927214" opacity="0.6" d="M 580.3628283530986,787.6654696368716 L 572.5931273171947,723.0104574452416 L 540.5401148442214,726.8623216050846 L 548.3098158801254,791.517333796714 L 580.3628283530986,787.6654696368716 z" /><path fill-rule="evenodd" fill="#ff3333" stroke="#555555" stroke-width="3.3428273521927214" opacity="0.6" d="M 548.3098158801254,791.517333796714 L 540.5401148442214,726.8623216050846 L 508.48710237124806,730.7141857649262 L 516.256803407152,795.3691979565563 L 548.3098158801254,791.517333796714 z" /><path fill-rule="evenodd" fill="#ff3333" stroke="#555555" stroke-width="3.3428273521927214" opacity="0.6" d="M 876.6096416457619,817.653704389921 L 868.839940609858,752.9986921982909 L 836.7869281368849,756.8505563581339 L 844.5566291727887,821.5055685497633 L 876.6096416457619,817.653704389921 z" /><path fill-rule="evenodd" fill="#ff3333" stroke="#555555" stroke-width="3.3428273521927214" opacity="0.6" d="M 844.5566291727887,821.5055685497633 L 836.7869281368849,756.8505563581339 L 804.7339156639115,760.702420517975 L 812.5036166998154,825.3574327096056 L 844.5566291727887,821.5055685497633 z" /><path fill-rule="evenodd" fill="#ff3333" stroke="#555555" stroke-width="3.3428273521927214" opacity="0.6" d="M 812.5036166998154,825.3574327096056 L 804.7339156639115,760.702420517975 L 772.6809031909382,764.554284677818 L 780.4506042268422,829.2092968694479 L 812.5036166998154,825.3574327096056 z" /><path fill-rule="evenodd" fill="#ff3333" stroke="#555555" stroke-width="3.3428273521927214" opacity="0.6" d="M 780.4506042268422,829.2092968694479 L 772.6809031909382,764.554284677818 L 740.627890717965,768.4061488376601 L 748.3975917538689,833.0611610292902 L 780.4506042268422,829.2092968694479 z" /><path fill-rule="evenodd" fill="#ff3333" stroke="#555555" stroke-width="3.3428273521927214" opacity="0.6" d="M 748.3975917538689,833.0611610292902 L 740.627890717965,768.4061488376601 L 708.5748782449919,772.2580129975031 L 716.3445792808957,836.9130251891324 L 748.3975917538689,833.0611610292902 z" /><path fill-rule="evenodd" fill="#ff3333" stroke="#555555" stroke-width="3.3428273521927214" opacity="0.6" d="M 716.3445792808957,836.9130251891324 L 708.5748782449919,772.2580129975031 L 676.5218657720186,776.1098771573452 L 684.2915668079224,840.7648893489747 L 716.3445792808957,836.9130251891324 z" /><path fill-rule="evenodd" fill="#ff3333" stroke="#555555" stroke-width="3.3428273521927214" opacity="0.6" d="M 684.2915668079224,840.7648893489747 L 676.5218657720186,776.1098771573452 L 644.4688532990452,779.9617413171882 L 652.2385543349492,844.616753508817 L 684.2915668079224,840.7648893489747 z" /><path fill-rule="evenodd" fill="#ff3333" stroke="#555555" stroke-width="3.3428273521927214" opacity="0.6" d="M 652.2385543349492,844.616753508817 L 644.4688532990452,779.9617413171882 L 612.415840826072,783.8136054770293 L 620.1855418619759,848.4686176686594 L 652.2385543349492,844.616753508817 z" /><path fill-rule="evenodd" fill="#ff3333" stroke="#555555" stroke-width="3.3428273521927214" opacity="0.6" d="M 620.1855418619759,848.4686176686594 L 612.415840826072,783.8136054770293 L 580.3628283530987,787.6654696368714 L 588.1325293890027,852.3204818285017 L 620.1855418619759,848.4686176686594 z" /><path fill-rule="evenodd" fill="#ff3333" stroke="#555555" stroke-width="3.3428273521927214" opacity="0.6" d="M 588.1325293890027,852.3204818285017 L 580.3628283530987,787.6654696368714 L 548.3098158801255,791.517333796714 L 556.0795169160294,856.172345988344 L 588.1325293890027,852.3204818285017 z" /><path fill-rule="evenodd" fill="#ff3333" stroke="#555555" stroke-width="3.3428273521927214" opacity="0.6" d="M 556.0795169160294,856.172345988344 L 548.3098158801255,791.517333796714 L 516.2568034071521,795.369197956556 L 524.0265044430561,860.0242101481863 L 556.0795169160294,856.172345988344 z" /></g></g></svg>